<?xml version="1.0" encoding="utf-8"?>
<!-- Generator: Adobe Illustrator 24.0.2, SVG Export Plug-In . SVG Version: 6.00 Build 0)  -->
<svg version="1.1" id="Layer_1" xmlns="http://www.w3.org/2000/svg" xmlns:xlink="http://www.w3.org/1999/xlink" x="0px" y="0px"
	 viewBox="0 0 180 58" style="enable-background:new 0 0 180 58;" xml:space="preserve" width="180" height="58">
<style type="text/css">
	.st0{fill:#FF4438;}
	.st1{fill:none;stroke:#7A7E82;stroke-width:0.1325;stroke-miterlimit:1.7672;}
	.st2{fill:#7A7E82;}
</style>
<g>
	<path class="st0" d="M57.4,11.3c0,1-0.7,1.7-1.7,1.7c-0.9,0-1.7-0.7-1.7-1.7s0.7-1.7,1.7-1.7S57.4,10.3,57.4,11.3z M54.2,11.3
		c0,0.8,0.6,1.4,1.4,1.4s1.4-0.6,1.4-1.4c0-0.8-0.6-1.4-1.4-1.4C54.9,9.8,54.2,10.4,54.2,11.3z M55.4,12.2h-0.2v-2h0.7
		c0.4,0,0.6,0.2,0.6,0.5s-0.2,0.5-0.5,0.5l0.6,0.9h-0.3l-0.5-0.9h-0.4L55.4,12.2L55.4,12.2z M55.7,11.2c0.3,0,0.6,0,0.6-0.3
		s-0.2-0.3-0.5-0.3h-0.4v0.7L55.7,11.2L55.7,11.2z"/>
</g>
<g>
	<path class="st0" d="M34.4,43.7c0.3,0,0.6,0.1,0.9,0.1c0.7-0.9,2.1-3.3,2.6-8.4l-1.5-0.1c-0.6,6-2.5,7.9-2.5,7.9L34.4,43.7
		L34.4,43.7z"/>
	<path class="st0" d="M38.2,39.9c0,1.2,0,2.6-0.1,4c0.5,0,1.1,0,1.6-0.1c0-0.7,0.2-4.3-0.1-8.6L38,35.3
		C38.2,37.2,38.2,38.7,38.2,39.9z"/>
	<g>
		<path class="st0" d="M36.8,44.9C25.9,44.9,16.9,36,16.9,25S25.8,5.1,36.8,5.1S56.7,14,56.7,25S47.8,44.9,36.8,44.9z M36.8,6.6
			c-10.1,0-18.4,8.3-18.4,18.4s8.2,18.4,18.4,18.4S55.2,35.1,55.2,25S47,6.6,36.8,6.6z"/>
	</g>
	<path class="st0" d="M36.8,25"/>
	<path class="st0" d="M29.2,11.3"/>
	<path class="st0" d="M23,32.6c0-0.5,0.2-1,0.6-1.4c0,0-0.1,0-0.1-0.1l0,0c-1.7-1.1-1.9-2.1-1.7-3.7c0.1-0.7-0.1-1.5-0.2-2.3
		c-0.4-1.9-0.5-3.2,0.8-3.9c0.2-0.1,0.4-0.2,0.7-0.3c-0.3-0.5-0.5-1-0.6-1.4c-0.3,0.1-0.5,0.2-0.8,0.3c-2.5,1.2-2,3.7-1.7,5.6l0,0
		c0.1,0.7,0.3,1.3,0.2,1.8c-0.3,2.1,0,3.6,2.3,5.2C22.6,32.4,22.9,32.5,23,32.6L23,32.6z"/>
	<path class="st0" d="M30,11.3c0.2,0,0.4,0.2,0.8,0.5c0.3-0.6,0.8-1.1,1.4-1.5c0.2-0.1,1.3-0.5,2.3-0.3c1.2,0.3,2,0,2.7-0.2l0,0
		c0.3-0.1,0.6-0.2,1-0.2c0.3,0,1,0,1.7,0.7c0.3,0.3,0.6,0.6,0.8,1.1c0.5-0.3,1-0.5,1.4-0.6c-0.3-0.7-0.7-1.2-1.1-1.6l0,0l0,0
		C40,8.2,38.8,8,38,8.1c-0.5,0.1-0.9,0.2-1.2,0.3c-0.7,0.2-1.1,0.3-1.9,0.2C33.1,8.2,31.5,9,31.4,9c0,0,0,0-0.1,0
		c-1.1,0.6-1.8,1.5-2.3,2.7C29.5,11.4,29.8,11.3,30,11.3z"/>
	<path class="st0" d="M53.4,25c-1.3-2.9,0.3-3.1-0.5-5.3c-0.2-0.4-0.5-0.8-0.9-1.2l0,0c-0.4-0.4-0.9-0.7-1.6-1
		c-0.2,0.4-0.4,0.9-0.7,1.4c0.5,0.1,0.9,0.4,1.2,0.7c1,0.9,1,2.2,0.8,2.9c-0.3,1.1,0,1.9,0.3,2.7c0.4,1,0.7,1.8-0.6,3.2
		c-0.2,0.2-0.5,0.5-1,0.8c0.4,0.8,0.7,1.4,0.7,1.4c0.6-0.3,1-0.7,1.5-1.2c0.4-0.5,0.9-1.1,1.1-1.9C53.9,26.8,53.9,25.9,53.4,25z"/>
	<g>
		<path class="st0" d="M39.9,19.4c-1.4-0.3-3.4,0.1-4.3,1.2c-0.1,0.2-0.3,0.4-0.4,0.6c-0.4-0.5-0.9-1-1.5-1.3
			c-0.6-0.3-1.2-0.3-1.7-0.1c-0.6,0.2-1.1,0.7-1.3,1.3c-0.5,1.3,0.2,3,0.9,4.2c0.5,0.9,1.1,1.4,1.8,1.7c-0.7,0.4-1.1,0.8-1.3,1.3
			c-0.2,0.5-0.2,1,0.1,1.5c0.3,0.5,0.9,0.8,1.7,0.9c1.4,0.2,3.4-0.2,4.6-1.3c0.2-0.2,0.4-0.4,0.5-0.6c0.5,0.7,1.3,1.2,2.1,0.9
			c0.9-0.3,1.4-1.4,1.4-2.8c0-0.1,0-0.2,0-0.3c-0.1-1.4-0.8-3.1-2.4-3.8c1.1-0.7,1.4-1.4,1.4-2c0-0.2,0-0.3-0.1-0.4
			C41.2,20,40.8,19.6,39.9,19.4z M37.5,28.6c-0.8,0.8-2.4,1.1-3.4,1c-0.5-0.1-0.7-0.2-0.7-0.3c-0.1-0.1-0.1-0.3,0-0.4
			c0.2-0.4,0.9-0.9,2.4-1.4h0.1c0.3,0.1,0.6,0.2,0.9,0.2c0.4,0,0.9-0.1,1.2-0.3C38,27.7,38,28.2,37.5,28.6z M41.2,26.8
			c0.1,1-0.3,1.7-0.5,1.7c-0.4,0.1-1.2-1-1.6-2.2c0.2-0.4,0.3-0.8,0.3-1.3c0-0.4-0.1-0.8-0.2-1.1C40,24.2,41,24.9,41.2,26.8z M38,25
			c0,0.7-0.6,1.3-1.3,1.3s-1.3-0.6-1.3-1.3c0-0.7,0.6-1.3,1.3-1.3C37.5,23.7,38,24.3,38,25z M34.8,23.2C34.4,23.7,34,24.3,34,25
			c0,0.4,0.1,0.7,0.2,1c-0.5-0.2-1.1-0.5-1.5-1.3c-0.7-1.3-1.1-2.5-0.8-3.1c0.1-0.2,0.2-0.4,0.5-0.5c0.1-0.1,0.3-0.1,0.7,0.1
			C33.8,21.5,34.5,22.5,34.8,23.2z M40.2,20.9c0.1,0.5-1.2,1.3-2.2,1.7c0,0-0.1,0-0.1,0.1c-0.4-0.2-0.8-0.3-1.2-0.3
			c-0.1,0-0.3,0-0.4,0c-0.1-0.6,0.1-1.1,0.8-1.4C38.4,20.3,40,20.6,40.2,20.9z"/>
		<path class="st0" d="M39.7,10.9c-1.4,1.1-2.3,2.6-2.8,3.4C36.5,14.1,36,14,35.5,14c-0.4,0-0.8,0.1-1.1,0.3
			c-0.7-1.1-2.3-2.9-4.5-3.7c-2.6-0.9-4,1.2-5.1,2.8l0,0c-0.4,0.6-0.8,1.1-1.1,1.4c-1.7,1.3-2.6,2.6-2,5.3c0.2,0.9,1,2.7,4.5,4.6
			C26,25.1,26,25.5,26,25.9V26c0,0.4,0.1,0.8,0.3,1.3c-1.9,1.1-4,3-3.8,5.5c0.1,2,1.7,3.5,2.5,3.9c0.7,0.3,1.2,0.9,1.3,1.1
			c0.6,1,1.5,1.8,2.6,2.2c1.2,0.5,2.6,0.5,3.9-0.1c2-0.9,3.4-3.3,4-4.4c0.2,0.1,0.5,0.2,0.7,0.2c0.5,0.1,0.9,0.1,1.4,0
			c0.3,0.4,0.7,1,1.2,1.6c1.4,1.4,3.1,2.1,4.9,2c0.7,0,1.4-0.2,2.1-0.5c0.6-0.4,1.2-1.1,1.6-2c1.1-3,2.4-1.9,3.4-4.1
			c0.1-0.4,0.2-0.9,0.2-1.5l0,0c-0.1-1.6-1-3.8-5.1-5.9c0.3-0.4,0.4-0.9,0.4-1.5c0-0.1,0-0.3,0-0.4s0-0.3-0.1-0.4
			c3-2.5,3.7-4.7,3.7-6.1c0,0,0,0,0-0.1c0,0,0,0,0-0.1c0-1.5-0.8-2.5-1.4-2.9c-0.4-0.3-0.8-0.5-1.1-0.6c-0.6-0.3-1.1-0.6-1.5-1.2
			c-0.9-1.5-2.6-2.1-2.6-2.1h-0.1C42.8,9.5,41.2,9.8,39.7,10.9z M24.8,22.1c-1-0.8-1.6-1.5-1.7-2.2l0,0c-0.4-2,0.1-2.8,1.5-3.8
			c0.5-0.4,1-1.1,1.5-1.8c1.1-1.6,1.9-2.6,3.3-2.2c1.9,0.7,3.2,2.4,3.8,3.1c-0.7,0.7-1.2,1.5-1.6,2.2c-0.1-0.1-0.3-0.2-0.4-0.2
			c-0.6-0.3-1.4-0.2-2.2,0.2c0,0-0.1,0-0.1,0.1c-1,0.8-1.6,2-1.6,3.5c0,0.9,0.2,1.8,0.4,2.5c-0.1,0-0.3,0.1-0.4,0.1
			C26.8,23.4,25.8,22.8,24.8,22.1z M31.9,38.5L31.9,38.5c-1.9,0.8-3.6-0.2-4.5-1.6c0,0,0,0,0-0.1c0,0-0.8-1.1-2-1.6
			c-0.3-0.1-1.5-1.1-1.6-2.6c-0.1-1.4,1-2.8,3.1-4.1c0.3,0.4,0.7,0.7,1.2,1.1c0.3,0.3,0.7,0.5,1.1,0.8c-0.2,0.4-0.3,0.8-0.3,1.2
			c0,1.2,0.9,2.2,2.3,2.6c1.4,0.3,3,0,4.1-0.4c0,0.2,0.1,0.3,0.1,0.5c0,0,0,0,0,0.1C35.4,34.4,34,37.6,31.9,38.5z M50.6,31.3
			c0,1.3-0.8,2.3-1.5,2.6c-1,0.5-1.4,1.3-1.7,2.1c-0.4,1-0.8,1.7-2.7,1.8c-0.8,0.1-2.9-0.1-4.7-2.7c0.9-0.7,1.5-1.8,2-2.5
			c0.5,0.3,1.1,0.4,1.8,0.3c0.1,0,0.1,0,0.1,0c0.9-0.4,2-1.3,2-3.6l0,0c0-1-0.2-2.1-0.4-2.8l0,0C48.8,27.8,50.6,29.5,50.6,31.3z
			 M45.9,23.6c0,0.1,0,0.2,0,0.2c0,0.4-0.2,0.7-0.6,0.9c-0.1,0-0.1,0-0.2,0.1C44.9,25,44.5,25,44.5,25c-0.3,0-0.5,0.1-0.6,0.3
			c-0.1,0.2-0.2,0.5-0.1,0.7c0,0.1,0.6,1.6,0.6,3.1c0,1.1-0.3,1.8-1,2.1c-0.6,0.1-0.8-0.2-0.8-0.4c-0.1-0.3-0.4-0.6-0.7-0.6
			c-0.3,0-0.7,0.2-0.8,0.5c0,0-1,2.6-2.4,3.4c-0.4,0.2-0.7,0.2-1.1,0.2v0.1v-0.1l0,0c-0.4-0.1-0.8-0.2-0.8-1c0-0.2,0-0.4,0-0.4
			c0.1-0.3,0-0.6-0.3-0.8c-0.2-0.2-0.5-0.2-0.8-0.1c-0.3,0.1-2.6,1.1-4.2,0.7c-0.7-0.2-1-0.5-1-1c0-0.3,0.2-0.6,0.4-0.8
			c0.2-0.2,0.4-0.4,0.4-0.7c0-0.3-0.2-0.5-0.5-0.7c-0.5-0.2-1.4-0.7-2.1-1.3c-0.6-0.5-1.3-1.3-1.3-2.1V26c0-0.5,0.1-0.8,0.3-1
			c0.2-0.1,0.6-0.1,0.8,0c0.3,0.1,0.6,0,0.9-0.2c0.2-0.2,0.3-0.6,0.1-0.9c-0.1-0.2-0.7-1.6-0.7-3c0-1,0.3-1.8,0.9-2.3
			c0.3-0.2,0.6-0.2,0.8-0.1c0.3,0.1,0.4,0.5,0.4,0.5c0.1,0.3,0.4,0.5,0.7,0.5s0.6-0.2,0.8-0.5c0.2-0.4,0.6-1.3,1.2-2.1
			c0.5-0.6,1.2-1.4,2-1.5c0.4,0,0.7,0,0.8,0.2c0.3,0.2,0.3,0.7,0.3,1c0,0.2,0,0.3,0,0.3c0,0.3,0.1,0.6,0.3,0.7
			c0.2,0.2,0.5,0.2,0.8,0.1c0.8-0.4,3.2-1.2,4.4-0.4c0.4,0.3,0.5,0.5,0.5,0.7c0,0.5-0.4,1-0.5,1.2l0,0c-0.2,0.1-0.3,0.4-0.3,0.6
			c0,0.3,0.1,0.5,0.4,0.7c0.1,0,0.1,0.1,0.2,0.1C43,21,45.8,22.2,45.9,23.6z M44,11.4c0.2,0.1,1.3,0.5,1.8,1.5
			c0.6,1,1.4,1.4,2.1,1.8l0,0c0.3,0.2,0.6,0.3,0.8,0.5s0.7,0.8,0.7,1.7c0,1-0.5,2.7-2.9,4.7c-0.4-0.5-0.9-0.9-1.6-1.3
			c-0.4-0.2-0.8-0.4-1.2-0.6c0.3-0.5,0.4-1.1,0.4-1.5c0-0.6-0.2-1.4-1.2-2c-1.5-0.9-3.6-0.5-4.9-0.1c0-0.2-0.1-0.4-0.1-0.5
			c0.2-0.5,0.9-1.8,1.9-2.8C41.2,11.5,42.5,11,44,11.4z"/>
	</g>
</g>
<line class="st1" x1="163.1" y1="38.1" x2="58.6" y2="38.1"/>
<g>
	<path class="st0" d="M61.1,16.9v-3.7h12.6l-7.6,15.7h7.3v3.7H60l7.6-15.7C67.5,16.9,61.1,16.9,61.1,16.9z"/>
	<path class="st0" d="M83.2,28.5l3,1.5c0,0.1-0.1,0.2-0.2,0.3c-0.1,0.1-0.3,0.4-0.6,0.7c-0.3,0.3-0.7,0.6-1,0.9
		c-0.4,0.3-0.9,0.5-1.5,0.7c-0.6,0.2-1.3,0.3-2,0.3c-1.8,0-3.3-0.6-4.5-1.7c-1.2-1.1-1.8-2.6-1.8-4.4s0.6-3.3,1.8-4.4
		c1.2-1.1,2.7-1.7,4.4-1.7c1.8,0,3.2,0.6,4.3,1.7s1.7,2.6,1.7,4.4l-8.2,1.6c0.5,0.9,1.3,1.3,2.3,1.3c0.5,0,0.9-0.1,1.3-0.3
		s0.6-0.4,0.7-0.6L83.2,28.5z M81,23.8c-0.6,0-1.1,0.2-1.6,0.5c-0.4,0.4-0.7,0.9-0.9,1.5l4.5-0.9C82.6,24.2,81.8,23.8,81,23.8z"/>
	<path class="st0" d="M88.8,16.9v-3.7h12.6l-7.6,15.7h7.3v3.7H87.8l7.6-15.7C95.3,16.9,88.8,16.9,88.8,16.9z"/>
	<path class="st0" d="M115.6,20.9v11.6h-3.4v-0.8c-0.1,0.1-0.2,0.2-0.4,0.3c-0.2,0.1-0.5,0.3-1.1,0.5s-1.2,0.3-1.9,0.3
		c-1.7,0-3-0.6-4.1-1.7c-1-1.1-1.5-2.5-1.5-4.4c0-1.8,0.5-3.3,1.6-4.4s2.4-1.7,4.1-1.7c0.7,0,1.3,0.1,1.8,0.3c0.6,0.2,1,0.4,1.2,0.5
		l0.4,0.2v-0.8L115.6,20.9L115.6,20.9z M107.5,24.8c-0.5,0.5-0.7,1.1-0.7,1.9s0.2,1.5,0.7,1.9s1.1,0.7,1.8,0.7
		c0.7,0,1.4-0.2,1.8-0.7s0.7-1.1,0.7-1.9s-0.2-1.5-0.7-1.9c-0.5-0.5-1.1-0.7-1.8-0.7C108.7,24.1,108,24.3,107.5,24.8z"/>
	<path class="st0" d="M141.9,13.2l-8.2,20.2l-4.2-10.7l-4.2,10.7l-8.2-20.2h4.4l3.8,9.9l4.2-10.7l4.2,10.8l3.8-9.9L141.9,13.2
		L141.9,13.2z"/>
	<path class="st0" d="M152.6,20.9v11.6h-3.4v-0.8c-0.1,0.1-0.2,0.2-0.4,0.3c-0.2,0.1-0.5,0.3-1.1,0.5s-1.2,0.3-1.9,0.3
		c-1.7,0-3-0.6-4.1-1.7c-1.1-1.1-1.6-2.6-1.6-4.4s0.5-3.3,1.6-4.4c1.1-1.1,2.4-1.7,4.1-1.7c0.7,0,1.3,0.1,1.8,0.3
		c0.6,0.2,1,0.4,1.2,0.5l0.4,0.2v-0.8h3.4V20.9z M144.6,24.8c-0.5,0.5-0.7,1.1-0.7,1.9s0.2,1.5,0.7,1.9s1.1,0.7,1.8,0.7
		s1.4-0.2,1.8-0.7s0.7-1.1,0.7-1.9s-0.2-1.5-0.7-1.9c-0.5-0.5-1.1-0.7-1.8-0.7C145.8,24.1,145.1,24.3,144.6,24.8z"/>
	<path class="st0" d="M162.4,20.7v3.7h-0.3c-0.8,0-1.4,0.2-1.9,0.7s-0.7,1.2-0.7,2.1v5.4h-3.6V20.9h3.4v0.9
		C160.1,21,161.2,20.7,162.4,20.7z"/>
</g>
<g>
	<path class="st0" d="M143.5,17.6c-0.2-0.2-0.3-0.4-0.3-0.6s0.1-0.5,0.3-0.6c0.2-0.2,0.4-0.3,0.6-0.3s0.5,0.1,0.6,0.3
		c0.2,0.2,0.3,0.4,0.3,0.6s-0.1,0.5-0.3,0.6c-0.2,0.2-0.4,0.3-0.6,0.3S143.6,17.8,143.5,17.6z"/>
	<path class="st0" d="M146.3,17.2c-0.5-0.4-0.7-1-0.7-1.7s0.2-1.3,0.7-1.7s1-0.7,1.7-0.7c0.3,0,0.6,0.1,0.9,0.2
		c0.3,0.1,0.5,0.2,0.6,0.3l0.2,0.2l-0.8,1.1l-0.1-0.1c0,0-0.1-0.1-0.3-0.2c-0.2-0.1-0.3-0.1-0.5-0.1c-0.3,0-0.5,0.1-0.7,0.3
		s-0.3,0.4-0.3,0.8s0.1,0.6,0.3,0.8s0.4,0.3,0.7,0.3c0.2,0,0.3,0,0.5-0.1s0.2-0.1,0.3-0.2l0.1-0.1l0.8,1.1c0,0,0,0-0.1,0.1
		c0,0-0.1,0.1-0.2,0.2c-0.1,0.1-0.2,0.1-0.3,0.2s-0.3,0.1-0.5,0.2c-0.2,0-0.4,0.1-0.6,0.1C147.3,17.9,146.8,17.7,146.3,17.2z"/>
	<path class="st0" d="M154.2,17.2c-0.5,0.4-1,0.7-1.7,0.7s-1.3-0.2-1.7-0.7c-0.5-0.4-0.7-1-0.7-1.7s0.2-1.3,0.7-1.7s1-0.7,1.7-0.7
		s1.3,0.2,1.7,0.7s0.7,1,0.7,1.7S154.6,16.8,154.2,17.2z M151.8,16.3c0.2,0.2,0.4,0.3,0.7,0.3s0.5-0.1,0.7-0.3
		c0.2-0.2,0.3-0.4,0.3-0.7s-0.1-0.5-0.3-0.7s-0.4-0.3-0.7-0.3s-0.5,0.1-0.7,0.3s-0.3,0.4-0.3,0.7S151.5,16.1,151.8,16.3z"/>
	<path class="st0" d="M159.9,15.3v2.5h-1.4v-2.6c0-0.5-0.2-0.7-0.5-0.7c-0.2,0-0.4,0.1-0.5,0.2c-0.1,0.2-0.2,0.4-0.2,0.6v2.5H156
		v-4.5h1.3v0.3c0.3-0.3,0.7-0.4,1.1-0.4c0.6,0,1,0.2,1.3,0.6c0.3-0.4,0.8-0.6,1.3-0.6s0.9,0.2,1.2,0.5s0.4,0.8,0.4,1.4v2.8h-1.4
		v-2.6c0-0.5-0.2-0.7-0.5-0.7c-0.2,0-0.4,0.1-0.5,0.2C160,14.9,159.9,15.1,159.9,15.3z"/>
</g>
<g>
	<path class="st2" d="M62.1,46.2l1.7-2.3v3.8h-0.3v-3l-1.4,2l-1.4-2v3h-0.3v-3.8L62.1,46.2z"/>
	<path class="st2" d="M66.7,47.6l1.3-3.8l1.4,3.8h-0.3l-0.3-0.8h-1.5L67,47.6H66.7z M68.1,44.6l-0.7,2h1.4L68.1,44.6z"/>
	<path class="st2" d="M74.2,47.6l-1.6-1.7v1.7h-0.3v-3.8h0.3v1.9l1.4-1.9h0.3l-1.4,2l1.7,1.8H74.2z"/>
	<path class="st2" d="M77.3,47.6v-3.8h1.7v0.3h-1.4v1.4h1.4v0.3h-1.4v1.6h1.4v0.3L77.3,47.6L77.3,47.6z"/>
	<path class="st2" d="M88.3,43.9l-1,1.9v1.9H87v-1.9l-1.1-1.9h0.3l0.9,1.6l0.9-1.6H88.3z"/>
	<path class="st2" d="M94.2,44.4c0.4,0.4,0.6,0.8,0.6,1.4c0,0.5-0.2,1-0.6,1.4s-0.8,0.6-1.4,0.6s-1-0.2-1.4-0.6s-0.6-0.8-0.6-1.4
		c0-0.5,0.2-1,0.6-1.4s0.8-0.6,1.4-0.6S94,44,94.2,44.4z M91.7,44.5c-0.3,0.3-0.5,0.7-0.5,1.2s0.2,0.9,0.5,1.2s0.7,0.5,1.2,0.5
		s0.9-0.2,1.2-0.5s0.5-0.7,0.5-1.2s-0.2-0.9-0.5-1.2S93.3,44,92.8,44S92,44.2,91.7,44.5z"/>
	<path class="st2" d="M100.2,47.4c-0.2,0.2-0.5,0.3-0.9,0.3s-0.7-0.1-0.9-0.3c-0.2-0.2-0.3-0.5-0.3-0.9v-2.6h0.3v2.6
		c0,0.3,0.1,0.5,0.2,0.7c0.2,0.2,0.4,0.3,0.7,0.3s0.6-0.1,0.7-0.3c0.2-0.2,0.2-0.4,0.2-0.7v-2.6h0.3v2.6
		C100.6,46.9,100.5,47.2,100.2,47.4z"/>
	<path class="st2" d="M105.5,47.6l-1.3-1.5v1.6h-0.3v-3.8h0.6c0.4,0,0.8,0.1,1,0.3s0.4,0.5,0.4,0.8s-0.1,0.6-0.3,0.8
		c-0.2,0.2-0.5,0.3-1,0.3l1.3,1.5C105.8,47.6,105.5,47.6,105.5,47.6z M104.2,45.9h0.3c0.4,0,0.6-0.1,0.8-0.2
		c0.2-0.2,0.3-0.4,0.3-0.7s-0.1-0.5-0.3-0.7s-0.5-0.2-0.8-0.2h-0.3V45.9z"/>
	<path class="st2" d="M113.2,47.6v-3.8h0.3v3.5h1.5v0.3H113.2z"/>
	<path class="st2" d="M117.8,47.6v-3.8h0.3v3.8H117.8z"/>
	<path class="st2" d="M121.5,47.6v-3.8h1.7v0.3h-1.4v1.4h1.4v0.3h-1.4v1.9h-0.3V47.6z"/>
	<path class="st2" d="M126.2,47.6v-3.8h1.7v0.3h-1.4v1.4h1.4v0.3h-1.4v1.6h1.4v0.3L126.2,47.6L126.2,47.6z"/>
	<path class="st2" d="M135.2,47.6v-3.8h1.7v0.3h-1.4v1.4h1.4v0.3h-1.4v1.6h1.4v0.3L135.2,47.6L135.2,47.6z"/>
	<path class="st2" d="M139.8,47.6l1.3-3.8l1.4,3.8h-0.3l-0.3-0.8h-1.5l-0.3,0.8H139.8z M141.1,44.6l-0.7,2h1.4L141.1,44.6z"/>
	<path class="st2" d="M145.2,47.1l0.2-0.2c0,0,0,0,0,0.1l0.1,0.1c0.1,0.1,0.1,0.1,0.2,0.2c0.1,0,0.2,0.1,0.3,0.1s0.2,0.1,0.3,0.1
		c0.2,0,0.4-0.1,0.6-0.2s0.2-0.3,0.2-0.6c0-0.2-0.1-0.3-0.2-0.5c-0.1-0.1-0.3-0.2-0.5-0.3s-0.4-0.2-0.5-0.2
		c-0.2-0.1-0.3-0.2-0.5-0.4c-0.1-0.2-0.2-0.3-0.2-0.6s0.1-0.5,0.3-0.7s0.4-0.3,0.7-0.3c0.2,0,0.4,0,0.5,0.1s0.3,0.2,0.3,0.2l0.1,0.1
		l-0.2,0.2l-0.1-0.1c0,0-0.1-0.1-0.3-0.2c-0.1-0.1-0.3-0.1-0.4-0.1c-0.2,0-0.4,0.1-0.5,0.2s-0.2,0.3-0.2,0.5s0.1,0.3,0.2,0.4
		s0.3,0.2,0.5,0.3s0.4,0.2,0.5,0.3c0.2,0.1,0.3,0.2,0.5,0.4s0.2,0.4,0.2,0.6c0,0.3-0.1,0.5-0.3,0.7s-0.5,0.3-0.8,0.3
		c-0.1,0-0.3,0-0.4-0.1c-0.1,0-0.2-0.1-0.3-0.1s-0.2-0.1-0.2-0.2C145.3,47.3,145.3,47.2,145.2,47.1L145.2,47.1z"/>
	<path class="st2" d="M150.5,47.6v-3.8h0.3v3.8H150.5z"/>
	<path class="st2" d="M154.2,47.6v-3.8h1.7v0.3h-1.4v1.4h1.4v0.3h-1.4v1.6h1.4v0.3L154.2,47.6L154.2,47.6z"/>
	<path class="st2" d="M160.8,47.6l-1.4-1.6v1.6h-0.2v-3.8h0.6c0.4,0,0.8,0.1,1,0.3s0.4,0.5,0.4,0.8s-0.1,0.6-0.3,0.8s-0.5,0.3-1,0.3
		l1.3,1.5h-0.4V47.6z M159.4,45.9h0.3c0.4,0,0.6-0.1,0.8-0.2c0.2-0.2,0.3-0.4,0.3-0.7s-0.1-0.5-0.3-0.7s-0.5-0.2-0.8-0.2h-0.3V45.9z
		"/>
</g>
</svg>
